<?xml version="1.0" standalone="no"?>
<!DOCTYPE svg PUBLIC "-//W3C//DTD SVG 20010904//EN"
 "http://www.w3.org/TR/2001/REC-SVG-20010904/DTD/svg10.dtd">
<svg version="1.0" xmlns="http://www.w3.org/2000/svg"
 width="192.000000pt" height="192.000000pt" viewBox="0 0 192.000000 192.000000"
 preserveAspectRatio="xMidYMid meet">
<metadata>
Created by potrace 1.14, written by Peter Selinger 2001-2017
</metadata>
<g transform="translate(0.000000,192.000000) scale(0.100000,-0.100000)"
fill="#000000" stroke="none">
<path d="M330 1346 c0 -542 1 -577 20 -637 48 -156 150 -253 369 -354 127 -58
221 -120 221 -145 0 -5 -6 -8 -12 -5 -7 2 -49 6 -93 10 -44 3 -91 8 -105 11
-52 11 -117 27 -182 46 l-68 19 0 82 c0 47 -5 88 -11 94 -15 15 -59 1 -159
-50 -118 -59 -120 -61 -120 -69 0 -5 -5 -8 -10 -8 -9 0 -134 -85 -164 -112
-31 -26 55 -8 177 38 20 8 40 14 42 14 12 0 3 -18 -22 -46 -82 -92 -134 -162
-125 -168 5 -3 20 5 33 18 29 26 184 135 204 143 11 3 15 -9 17 -52 l3 -57 55
-19 c30 -11 62 -22 70 -24 8 -2 35 -11 60 -20 108 -39 174 -48 394 -52 180 -4
232 -2 295 12 76 17 218 58 256 75 35 14 60 23 70 24 6 1 11 26 13 56 2 30 5
56 7 58 5 5 162 -101 204 -137 19 -17 38 -28 43 -25 7 4 -31 65 -52 84 -18 16
-100 123 -97 126 2 2 50 -12 108 -31 162 -54 165 -48 26 49 -157 109 -293 178
-350 179 l-38 0 45 44 c46 47 101 140 110 186 2 14 8 32 12 39 4 7 8 275 8
595 l1 583 -627 0 -628 0 0 -574z"/>
</g>
</svg>
