<svg xmlns="http://www.w3.org/2000/svg" viewBox="0 0 1440 320" preserveAspectRatio="none"><defs><linearGradient id="grad" x1="0%" y1="0%" x2="100%" y2="0%"><stop offset="0%" style="stop-color:#4F46E5;stop-opacity:0.1"/><stop offset="100%" style="stop-color:#9333EA;stop-opacity:0.05"/></linearGradient></defs><path fill="url(#grad)" d="M0,96L48,112C96,128,192,160,288,165.3C384,171,480,149,576,128C672,107,768,85,864,90.7C960,96,1056,128,1152,133.3C1248,139,1344,117,1392,106.7L1440,96L1440,320L1392,320C1344,320,1248,320,1152,320C1056,320,960,320,864,320C768,320,672,320,576,320C480,320,384,320,288,320C192,320,96,320,48,320L0,320Z"><animate attributeName="d" dur="10s" repeatCount="indefinite" values="M0,96L48,112C96,128,192,160,288,165.3C384,171,480,149,576,128C672,107,768,85,864,90.7C960,96,1056,128,1152,133.3C1248,139,1344,117,1392,106.7L1440,96L1440,320L1392,320C1344,320,1248,320,1152,320C1056,320,960,320,864,320C768,320,672,320,576,320C480,320,384,320,288,320C192,320,96,320,48,320L0,320Z;M0,160L48,165.3C96,171,192,181,288,165.3C384,149,480,107,576,90.7C672,75,768,85,864,101.3C960,117,1056,139,1152,149.3C1248,160,1344,160,1392,160L1440,160L1440,320L1392,320C1344,320,1248,320,1152,320C1056,320,960,320,864,320C768,320,672,320,576,320C480,320,384,320,288,320C192,320,96,320,48,320L0,320Z;M0,96L48,112C96,128,192,160,288,165.3C384,171,480,149,576,128C672,107,768,85,864,90.7C960,96,1056,128,1152,133.3C1248,139,1344,117,1392,106.7L1440,96L1440,320L1392,320C1344,320,1248,320,1152,320C1056,320,960,320,864,320C768,320,672,320,576,320C480,320,384,320,288,320C192,320,96,320,48,320L0,320Z"/></path></svg>